<?xml version="1.0" encoding="utf-8"?>
<svg version="1.1" xmlns:xlink="http://www.w3.org/1999/xlink" width="26px" height="23px" xmlns="http://www.w3.org/2000/svg">
  <g transform="matrix(1 0 0 1 -332 -472 )">
    <path d="M 333 475  A 2 2 0 0 1 335 473 L 355 473  A 2 2 0 0 1 357 475 L 357 492  A 2 2 0 0 1 355 494 L 335 494  A 2 2 0 0 1 333 492 L 333 475  Z " fill-rule="nonzero" fill="#ffffff" stroke="none" />
    <path d="M 332.5 475  A 2.5 2.5 0 0 1 335 472.5 L 355 472.5  A 2.5 2.5 0 0 1 357.5 475 L 357.5 492  A 2.5 2.5 0 0 1 355 494.5 L 335 494.5  A 2.5 2.5 0 0 1 332.5 492 L 332.5 475  Z " stroke-width="1" stroke-dasharray="3,1" stroke="#bcbcbc" fill="none" stroke-dashoffset="0.5" />
  </g>
</svg>