<?xml version="1.0" encoding="utf-8"?>
<svg version="1.1" xmlns:xlink="http://www.w3.org/1999/xlink" width="18px" height="18px" xmlns="http://www.w3.org/2000/svg">
  <g transform="matrix(1 0 0 1 -758 -279 )">
    <path d="M 18 9  C 18 4.027499999999975  13.972499999999968 0  9 0  C 4.027500000000032 0  0 4.027499999999975  0 9  C 0 13.972500000000025  4.027500000000032 18  9 18  C 13.972499999999968 18  18 13.972500000000025  18 9  Z M 9.899999999999977 13.5  L 9.899999999999977 15.300000000000011  L 8.100000000000023 15.300000000000011  L 8.100000000000023 13.5  L 9.899999999999977 13.5  Z M 12.600000000000023 6.300000000000011  C 12.600000000000023 7.0919999999999845  12.280499999999961 7.8075000000000045  11.758500000000026 8.329499999999996  L 10.952999999999975 9.157500000000027  C 10.30499999999995 9.805499999999995  9.899999999999977 10.350000000000023  9.899999999999977 11.699999999999989  L 8.100000000000023 11.699999999999989  L 8.100000000000023 11.25  C 8.100000000000023 10.255499999999984  8.504999999999995 9.355500000000006  9.15300000000002 8.702999999999975  L 10.273500000000013 7.569000000000017  C 10.597499999999968 7.2450000000000045  10.799999999999955 6.795000000000016  10.799999999999955 6.300000000000011  C 10.799999999999955 5.305499999999995  9.994500000000016 4.5  9 4.5  C 8.005499999999984 4.5  7.2000000000000455 5.305499999999995  7.2000000000000455 6.300000000000011  L 5.399999999999977 6.300000000000011  C 5.399999999999977 4.310999999999979  7.010999999999967 2.6999999999999886  9 2.6999999999999886  C 10.989000000000033 2.6999999999999886  12.600000000000023 4.310999999999979  12.600000000000023 6.300000000000011  Z " fill-rule="nonzero" fill="#ff0000" stroke="none" transform="matrix(1 0 0 1 758 279 )" />
  </g>
</svg>