<?xml version="1.0" encoding="utf-8"?>
<svg version="1.1" xmlns:xlink="http://www.w3.org/1999/xlink" width="78px" height="34px" xmlns="http://www.w3.org/2000/svg">
  <g transform="matrix(1 0 0 1 -374 -232 )">
    <path d="M 375 237  A 4 4 0 0 1 379 233 L 447 233  A 4 4 0 0 1 451 237 L 451 261  A 4 4 0 0 1 447 265 L 379 265  A 4 4 0 0 1 375 261 L 375 237  Z " fill-rule="nonzero" fill="#ffffff" stroke="none" />
    <path d="M 374.5 237  A 4.5 4.5 0 0 1 379 232.5 L 447 232.5  A 4.5 4.5 0 0 1 451.5 237 L 451.5 261  A 4.5 4.5 0 0 1 447 265.5 L 379 265.5  A 4.5 4.5 0 0 1 374.5 261 L 374.5 237  Z " stroke-width="1" stroke-dasharray="3,1" stroke="#a1a1a1" fill="none" stroke-dashoffset="0.5" />
  </g>
</svg>