<?xml version="1.0" encoding="utf-8"?>
<svg version="1.1" xmlns:xlink="http://www.w3.org/1999/xlink" width="82px" height="34px" xmlns="http://www.w3.org/2000/svg">
  <g transform="matrix(1 0 0 1 -378 -236 )">
    <path d="M 379 241  A 4 4 0 0 1 383 237 L 455 237  A 4 4 0 0 1 459 241 L 459 265  A 4 4 0 0 1 455 269 L 383 269  A 4 4 0 0 1 379 265 L 379 241  Z " fill-rule="nonzero" fill="#ffffff" stroke="none" />
    <path d="M 378.5 241  A 4.5 4.5 0 0 1 383 236.5 L 455 236.5  A 4.5 4.5 0 0 1 459.5 241 L 459.5 265  A 4.5 4.5 0 0 1 455 269.5 L 383 269.5  A 4.5 4.5 0 0 1 378.5 265 L 378.5 241  Z " stroke-width="1" stroke-dasharray="3,1" stroke="#a1a1a1" fill="none" stroke-dashoffset="0.5" />
  </g>
</svg>