<?xml version="1.0" encoding="utf-8"?>
<svg version="1.1" xmlns:xlink="http://www.w3.org/1999/xlink" width="300px" height="170px" xmlns="http://www.w3.org/2000/svg">
  <g transform="matrix(1 0 0 1 -406 -284 )">
    <path d="M 406 284  L 706 284  L 706 454  L 406 454  L 406 284  " fill-rule="nonzero" fill="#cccccc" stroke="none" />
    <path d="M 418 296  L 694 296  L 694 442  L 418 442  L 418 296  " fill-rule="nonzero" fill="#ffffff" stroke="none" />
    <path d="M 574.75 335  C 567.61 335  562 329.39  562 322.25  C 562 315.11  567.61 309.5  574.75 309.5  C 581.89 309.5  587.5 315.11  587.5 322.25  C 587.5 329.39  581.89 335  574.75 335  " fill-rule="nonzero" fill="#cccccc" stroke="none" />
    <path d="M 423 438  L 423 362.65  L 489.75 328.4  L 583.2 391.42  L 636.6 348.95  L 690 391.42  L 690 438  L 423 438  " fill-rule="nonzero" fill="#169bd5" stroke="none" />
  </g>
</svg>