<?xml version="1.0" encoding="utf-8"?>
<svg version="1.1" xmlns:xlink="http://www.w3.org/1999/xlink" width="36px" height="44px" xmlns="http://www.w3.org/2000/svg">
  <g transform="matrix(1 0 0 1 -1103 -467 )">
    <path d="M 36 8  C 36 5.79  34.21 4  32 4  L 23.630000000000003 4  C 22.810000000000002 1.6800000000000002  20.610000000000003 0  18.000000000000004 0  C 15.390000000000004 0  13.190000000000005 1.6799999999999997  12.370000000000005 4  L 4 4  C 1.79 4  0 5.79  0 8  L 0 40  C 0 42.21  1.79 44  4 44  L 32 44  C 34.21 44  36 42.21  36 40  L 36 8  Z M 16 6  C 16 4.89  16.9 4  18 4  C 19.1 4  20 4.89  20 6  C 20 7.11  19.1 8  18 8  C 16.9 8  16 7.11  16 6  Z M 32 8  L 32 40  L 4 40  L 4 8  L 8 8  L 8 14  L 28 14  L 28 8  L 32 8  Z " fill-rule="nonzero" fill="#6b6b6b" stroke="none" transform="matrix(1 0 0 1 1103 467 )" />
  </g>
</svg>