<?xml version="1.0" encoding="utf-8"?>
<svg version="1.1" xmlns:xlink="http://www.w3.org/1999/xlink" width="40px" height="40px" xmlns="http://www.w3.org/2000/svg">
  <g transform="matrix(1 0 0 1 -710 -471 )">
    <path d="M 40 10  C 40 8.9  39.1 8  38 8  L 34 8  L 34 26  L 8 26  L 8 30  C 8 31.1  8.9 32  10 32  L 32 32  L 40 40  L 40 10  Z M 28 22  C 29.1 22  30 21.1  30 20  L 30 2  C 30 0.9000000000000004  29.1 0  28 0  L 2 0  C 0.9000000000000004 0  0 0.9000000000000004  0 2  L 0 30  L 8 22  L 28 22  Z " fill-rule="nonzero" fill="#6b6b6b" stroke="none" transform="matrix(1 0 0 1 710 471 )" />
  </g>
</svg>