<?xml version="1.0" encoding="utf-8"?>
<svg version="1.1" xmlns:xlink="http://www.w3.org/1999/xlink" width="24px" height="27px" xmlns="http://www.w3.org/2000/svg">
  <g transform="matrix(1 0 0 1 -600 -461 )">
    <path d="M 24 5.399999999999977  C 24 3.9082500000000664  22.806666666666615 2.6999999999999886  21.333333333333258 2.6999999999999886  L 15.75333333333333 2.6999999999999886  C 15.206666666666592 1.1339999999999577  13.740000000000009 0  12 0  C 10.259999999999991 0  8.793333333333408 1.1339999999999577  8.24666666666667 2.6999999999999886  L 2.6666666666667425 2.6999999999999886  C 1.1933333333333849 2.6999999999999886  0 3.9082500000000664  0 5.399999999999977  L 0 24.30000000000001  C 0 25.791750000000036  1.1933333333333849 27  2.6666666666667425 27  L 21.333333333333258 27  C 22.806666666666615 27  24 25.791750000000036  24 24.30000000000001  L 24 5.399999999999977  Z M 10.666666666666629 4.050000000000011  C 10.666666666666629 3.3007499999999936  11.266666666666652 2.6999999999999886  12 2.6999999999999886  C 12.733333333333348 2.6999999999999886  13.333333333333371 3.3007499999999936  13.333333333333371 4.050000000000011  C 13.333333333333371 4.799250000000029  12.733333333333348 5.399999999999977  12 5.399999999999977  C 11.266666666666652 5.399999999999977  10.666666666666629 4.799250000000029  10.666666666666629 4.050000000000011  Z M 14.666666666666742 18.899999999999977  L 14.666666666666742 21.600000000000023  L 5.333333333333371 21.600000000000023  L 5.333333333333371 18.899999999999977  L 14.666666666666742 18.899999999999977  Z M 18.66666666666663 13  L 18.66666666666663 16  L 5.333333333333371 16  L 5.333333333333371 13  L 18.66666666666663 13  Z M 18.66666666666663 8.100000000000023  L 18.66666666666663 11  L 5.333333333333371 11  L 5.333333333333371 8.100000000000023  L 18.66666666666663 8.100000000000023  Z " fill-rule="nonzero" fill="#7e7e7e" stroke="none" transform="matrix(1 0 0 1 600 461 )" />
  </g>
</svg>