<?xml version="1.0" encoding="utf-8"?>
<svg version="1.1" xmlns:xlink="http://www.w3.org/1999/xlink" width="15px" height="26px" xmlns="http://www.w3.org/2000/svg">
  <g transform="matrix(1 0 0 1 -675 -464 )">
    <path d="M 15 17.759444444444455  C 15 13.671666666666683  11.528571428571468 12.270555555555575  8.285714285714334 11.411111111111097  C 5.042857142857201 10.558888888888873  4 9.685000000000002  4 8.312777777777796  C 4 6.738333333333345  5.435714285714312 5.633333333333326  7.85714285714289 5.633333333333326  C 10.399999999999977 5.633333333333326  11.342857142857156 6.861111111111085  11.428571428571445 8.666666666666686  L 14.585714285714289 8.666666666666686  C 14.492857142857133 6.175000000000011  12.985714285714266 3.9072222222222313  10 3.1633333333333553  L 10 0  L 5.714285714285666 0  L 5.714285714285666 3.1200000000000045  C 2.9428571428571786 3.7338888888888846  0.7142857142856656 5.5394444444444275  0.7142857142856656 8.334444444444443  C 0.7142857142856656 11.671111111111088  3.4500000000000455 13.332222222222242  7.428571428571445 14.300000000000013  C 11.007142857142867 15.166666666666686  11.714285714285666 16.430555555555543  11.714285714285666 17.788333333333355  C 11.714285714285666 18.77777777777777  11.0214285714286 20.366666666666674  7.85714285714289 20.366666666666674  C 4.914285714285711 20.366666666666674  3.75 19.030555555555566  3.6000000000000227 17.333333333333314  L 0.4500000000000455 17.333333333333314  C 0.6285714285713766 20.49666666666667  2.9642857142856656 22.266111111111115  5.714285714285666 22.865555555555545  L 5.714285714285666 26  L 10 26  L 10 22.894444444444446  C 12.778571428571468 22.35277777777776  15 20.72777777777776  15 17.759444444444455  Z " fill-rule="nonzero" fill="#818181" stroke="none" transform="matrix(1 0 0 1 675 464 )" />
  </g>
</svg>