<?xml version="1.0" encoding="utf-8"?>
<svg version="1.1" xmlns:xlink="http://www.w3.org/1999/xlink" width="28px" height="28px" xmlns="http://www.w3.org/2000/svg">
  <g transform="matrix(1 0 0 1 -1376 -464 )">
    <path d="M 28 14  C 28 6.264999999999986  21.7349999999999 0  14 0  C 6.2650000000001 0  0 6.264999999999986  0 14  C 0 21.735000000000014  6.2650000000001 28  14 28  C 21.7349999999999 28  28 21.735000000000014  28 14  Z M 5.1590000000001055 20.860000000000014  C 3.6890000000000778 18.962999999999965  2.7999999999999545 16.590000000000032  2.7999999999999545 14  C 2.7999999999999545 7.812000000000012  7.811999999999898 2.7999999999999545  14 2.7999999999999545  C 16.589999999999918 2.7999999999999545  18.962999999999965 3.6889999999999645  20.8599999999999 5.158999999999992  L 5.1590000000001055 20.860000000000014  Z M 25.200000000000045 14  C 25.200000000000045 20.187999999999988  20.188000000000102 25.200000000000045  14 25.200000000000045  C 11.410000000000082 25.200000000000045  9.037000000000035 24.311000000000035  7.1400000000001 22.841000000000008  L 22.840999999999894 7.139999999999986  C 24.310999999999922 9.037000000000035  25.200000000000045 11.409999999999968  25.200000000000045 14  Z " fill-rule="nonzero" fill="#7e7e7e" stroke="none" transform="matrix(1 0 0 1 1376 464 )" />
  </g>
</svg>