<?xml version="1.0" encoding="utf-8"?>
<svg version="1.1" xmlns:xlink="http://www.w3.org/1999/xlink" width="26px" height="26px" xmlns="http://www.w3.org/2000/svg">
  <g transform="matrix(1 0 0 1 -831 -466 )">
    <path d="M 26 13  C 26 5.8174999999999955  20.17599999999993 0  13 0  C 5.824000000000069 0  0 5.8174999999999955  0 13  C 0 20.182500000000005  5.824000000000069 26  13 26  C 20.17599999999993 26  26 20.182500000000005  26 13  Z M 14.299999999999955 16.899999999999977  L 14.299999999999955 19.5  L 11.700000000000045 19.5  L 11.700000000000045 16.899999999999977  L 14.299999999999955 16.899999999999977  Z M 14.299999999999955 6.5  L 14.299999999999955 14.300000000000013  L 11.700000000000045 14.300000000000013  L 11.700000000000045 6.5  L 14.299999999999955 6.5  Z " fill-rule="nonzero" fill="#7e7e7e" stroke="none" transform="matrix(1 0 0 1 831 466 )" />
  </g>
</svg>