<?xml version="1.0" encoding="utf-8"?>
<svg version="1.1" xmlns:xlink="http://www.w3.org/1999/xlink" width="36px" height="40px" xmlns="http://www.w3.org/2000/svg">
  <g transform="matrix(1 0 0 1 -44 -39 )">
    <path d="M 8 8  L 8 32  L 12 32  L 12 8  L 8 8  Z M 16 0  L 16 40  L 20 40  L 20 0  L 16 0  Z M 0 16  L 0 24  L 4 24  L 4 16  L 0 16  Z M 24 8  L 24 32  L 28 32  L 28 8  L 24 8  Z M 36 16  L 32 16  L 32 24  L 36 24  L 36 16  Z " fill-rule="nonzero" fill="#ffffff" stroke="none" transform="matrix(1 0 0 1 44 39 )" />
  </g>
</svg>