<?xml version="1.0" encoding="utf-8"?>
<svg version="1.1" xmlns:xlink="http://www.w3.org/1999/xlink" width="26px" height="26px" xmlns="http://www.w3.org/2000/svg">
  <g transform="matrix(1 0 0 1 -1082 -466 )">
    <path d="M 18.200000000000045 9.639499999999941  L 16.360500000000002 7.800000000000011  L 13 11.160499999999956  L 9.639499999999998 7.800000000000011  L 7.7999999999999545 9.639499999999941  L 11.160499999999956 13  L 7.7999999999999545 16.36050000000006  L 9.639499999999998 18.19999999999999  L 13 14.839500000000044  L 16.360500000000002 18.19999999999999  L 18.200000000000045 16.36050000000006  L 14.839500000000044 13  L 18.200000000000045 9.639499999999941  Z M 26 13  C 26 5.8174999999999955  20.18250000000012 0  13 0  C 5.8174999999999955 0  0 5.8174999999999955  0 13  C 0 20.182500000000005  5.8174999999999955 26  13 26  C 20.18250000000012 26  26 20.182500000000005  26 13  Z M 23.40000000000009 13  C 23.40000000000009 18.733000000000004  18.732999999999947 23.399999999999977  13 23.399999999999977  C 7.266999999999939 23.399999999999977  2.6000000000000227 18.733000000000004  2.6000000000000227 13  C 2.6000000000000227 7.266999999999996  7.266999999999939 2.6000000000000227  13 2.6000000000000227  C 18.732999999999947 2.6000000000000227  23.40000000000009 7.266999999999996  23.40000000000009 13  Z " fill-rule="nonzero" fill="#7e7e7e" stroke="none" transform="matrix(1 0 0 1 1082 466 )" />
  </g>
</svg>