<?xml version="1.0" encoding="utf-8"?>
<svg version="1.1" xmlns:xlink="http://www.w3.org/1999/xlink" width="29px" height="25px" xmlns="http://www.w3.org/2000/svg">
  <g transform="matrix(1 0 0 1 -452 -463 )">
    <path d="M 10.657500000000027 5.35714285714289  L 26.583333333333314 5.35714285714289  L 26.583333333333314 3  L 8.240833333333342 3  L 10.657500000000027 5.35714285714289  Z M 4.70645833333333 2.5238095238095184  L 2.319999999999993 0.1726190476190368  L 0.7793750000000159 1.6904761904761472  L 2.972500000000025 3.8511904761904816  C 2.6341666666666583 4.261904761904816  2.4166666666666856 4.785714285714334  2.4166666666666856 5.35714285714289  L 2.4166666666666856 18.452380952380963  L 0 18.452380952380963  L 0 22  L 21.423749999999984 22  L 24.269375000000025 24.827380952380963  L 25.803958333333355 23.309523809523853  L 4.70645833333333 2.5238095238095184  Z M 5 18  L 5 5.684523809523853  L 17.798749999999984 18  L 5 18  Z M 29 8.928571428571445  C 29 8.273809523809518  28.45625000000001 7.738095238095184  27.791666666666686 7.738095238095184  L 20.541666666666686 7.738095238095184  C 19.87708333333336 7.738095238095184  19.333333333333314 8.273809523809518  19.333333333333314 8.928571428571445  L 19.333333333333314 13.904761904761925  L 21.75 16.285714285714334  L 21.75 10.119047619047592  L 26.583333333333314 10.119047619047592  L 26.583333333333314 18.452380952380963  L 23.949166666666656 18.452380952380963  L 27.574166666666656 22.02380952380952  L 27.791666666666686 22.02380952380952  C 28.45625000000001 22.02380952380952  29 21.488095238095184  29 20.83333333333337  L 29 8.928571428571445  Z " fill-rule="nonzero" fill="#818181" stroke="none" transform="matrix(1 0 0 1 452 463 )" />
  </g>
</svg>