<?xml version="1.0" encoding="utf-8"?>
<svg version="1.1" xmlns:xlink="http://www.w3.org/1999/xlink" width="25px" height="28px" xmlns="http://www.w3.org/2000/svg">
  <g transform="matrix(1 0 0 1 -744 -464 )">
    <path d="M 20.83333333333337 18  L 20.83333333333337 21  L 4.166666666666629 21  L 4.166666666666629 18  L 20.83333333333337 18  Z M 20.83333333333337 13  L 20.83333333333337 15  L 4.166666666666629 15  L 4.166666666666629 13  L 20.83333333333337 13  Z M 20.83333333333337 7  L 20.83333333333337 10  L 4.166666666666629 10  L 4.166666666666629 7  L 20.83333333333337 7  Z M 0 0  L 0 28  L 2.0833333333333712 25.900000000000034  L 4.166666666666629 28  L 6.25 25.900000000000034  L 8.333333333333371 28  L 10.416666666666629 25.900000000000034  L 12.5 28  L 14.583333333333371 25.900000000000034  L 16.66666666666663 28  L 18.75 25.900000000000034  L 20.83333333333337 28  L 22.91666666666663 25.900000000000034  L 25 28  L 25 0  L 22.91666666666663 2.099999999999966  L 20.83333333333337 0  L 18.75 2.099999999999966  L 16.66666666666663 0  L 14.583333333333371 2.099999999999966  L 12.5 0  L 10.416666666666629 2.099999999999966  L 8.333333333333371 0  L 6.25 2.099999999999966  L 4.166666666666629 0  L 2.0833333333333712 2.099999999999966  L 0 0  Z " fill-rule="nonzero" fill="#7e7e7e" stroke="none" transform="matrix(1 0 0 1 744 464 )" />
  </g>
</svg>