<?xml version="1.0" encoding="utf-8"?>
<svg version="1.1" xmlns:xlink="http://www.w3.org/1999/xlink" width="26px" height="27px" xmlns="http://www.w3.org/2000/svg">
  <g transform="matrix(1 0 0 1 -1003 -465 )">
    <path d="M 20.729090909090928 19.967727272727302  L 12.456363636363676 11.376818181818237  L 11.818181818181756 10.714090909090885  L 8.910909090909058 7.69500000000005  L 7.090909090909008 5.80499999999995  L 2.818636363636415 1.368409090909097  L 1.50090909090909 0  L 0 1.5586363636363103  L 2.375454545454545 4.025454545454522  L 2.363636363636374 24.876818181818237  L 7.090909090909008 20  L 17.727272727272748 20  L 24.49909090909091 27  L 26 25.44136363636369  L 20.729090909090928 19.967727272727302  Z M 9.454545454545382 12.604090909090814  L 9.454545454545382 15.05863636363631  L 7.090909090909008 15.05863636363631  L 7.090909090909008 12.604090909090814  L 9.454545454545382 12.604090909090814  Z M 9.454545454545382 11.376818181818237  L 7.090909090909008 11.376818181818237  L 7.090909090909008 8.922272727272741  L 9.454545454545382 11.376818181818237  Z M 26 2.785909090909115  C 26 1.4359090909090924  24.93636363636358 0.3313636363636192  23.636363636363626 0.3313636363636192  L 4.82181818181823 0.3313636363636192  L 11.818181818181756 7.5968181818182074  L 11.818181818181756 5.240454545454554  L 21.272727272727252 5.240454545454554  L 21.272727272727252 7.69500000000005  L 11.912727272727238 7.69500000000005  L 13.09454545454548 8.922272727272741  L 21.272727272727252 8.922272727272741  L 21.272727272727252 11.376818181818237  L 15.458181818181856 11.376818181818237  L 23.725000000000023 19.961590909090944  C 24.98363636363638 19.912499999999966  26 18.832499999999982  26 17.513181818181806  L 26 2.785909090909115  Z " fill-rule="nonzero" fill="#7e7e7e" stroke="none" transform="matrix(1 0 0 1 1003 465 )" />
  </g>
</svg>