<?xml version="1.0" encoding="utf-8"?>
<svg version="1.1" xmlns:xlink="http://www.w3.org/1999/xlink" width="26px" height="23px" xmlns="http://www.w3.org/2000/svg">
  <g transform="matrix(1 0 0 1 -308 -555 )">
    <path d="M 309 558  A 2 2 0 0 1 311 556 L 331 556  A 2 2 0 0 1 333 558 L 333 575  A 2 2 0 0 1 331 577 L 311 577  A 2 2 0 0 1 309 575 L 309 558  Z " fill-rule="nonzero" fill="#ffffff" stroke="none" />
    <path d="M 308.5 558  A 2.5 2.5 0 0 1 311 555.5 L 331 555.5  A 2.5 2.5 0 0 1 333.5 558 L 333.5 575  A 2.5 2.5 0 0 1 331 577.5 L 311 577.5  A 2.5 2.5 0 0 1 308.5 575 L 308.5 558  Z " stroke-width="1" stroke-dasharray="3,1" stroke="#999999" fill="none" stroke-dashoffset="0.5" />
  </g>
</svg>