<?xml version="1.0" encoding="utf-8"?>
<svg version="1.1" xmlns:xlink="http://www.w3.org/1999/xlink" width="19px" height="19px" xmlns="http://www.w3.org/2000/svg">
  <g transform="matrix(1 0 0 1 -480 -328 )">
    <path d="M 10.449999999999989 8.550000000000011  L 10.449999999999989 4.75  L 8.550000000000011 4.75  L 8.550000000000011 8.550000000000011  L 4.75 8.550000000000011  L 4.75 10.449999999999989  L 8.550000000000011 10.449999999999989  L 8.550000000000011 14.25  L 10.449999999999989 14.25  L 10.449999999999989 10.449999999999989  L 14.25 10.449999999999989  L 14.25 8.550000000000011  L 10.449999999999989 8.550000000000011  Z M 19 9.5  C 19 4.260749999999973  14.739250000000027 0  9.5 0  C 4.260749999999973 0  0 4.260749999999973  0 9.5  C 0 14.739250000000027  4.260749999999973 19  9.5 19  C 14.739250000000027 19  19 14.739250000000027  19 9.5  Z M 17.100000000000023 9.5  C 17.100000000000023 13.68950000000001  13.68950000000001 17.100000000000023  9.5 17.100000000000023  C 5.31049999999999 17.100000000000023  1.8999999999999773 13.68950000000001  1.8999999999999773 9.5  C 1.8999999999999773 5.31049999999999  5.31049999999999 1.8999999999999773  9.5 1.8999999999999773  C 13.68950000000001 1.8999999999999773  17.100000000000023 5.31049999999999  17.100000000000023 9.5  Z " fill-rule="nonzero" fill="#497cff" stroke="none" transform="matrix(1 0 0 1 480 328 )" />
  </g>
</svg>