<?xml version="1.0" encoding="utf-8"?>
<svg version="1.1" xmlns:xlink="http://www.w3.org/1999/xlink" width="31px" height="21px" xmlns="http://www.w3.org/2000/svg">
  <g transform="matrix(1 0 0 1 -267 -465 )">
    <path d="M 31 10.5  C 28.562272727272727 4.354000000000042  22.55250000000001 0  15.5 0  C 8.454545454545439 0  2.4377272727272725 4.354000000000042  0 10.5  C 2.4377272727272725 16.645999999999958  8.454545454545439 21  15.5 21  C 22.55250000000001 21  28.562272727272727 16.645999999999958  31 10.5  Z M 22.54545454545456 10.5  C 22.54545454545456 14.364000000000035  19.389090909090896 17.5  15.5 17.5  C 11.610909090909104 17.5  8.454545454545439 14.364000000000035  8.454545454545439 10.5  C 8.454545454545439 6.635999999999967  11.610909090909104 3.5  15.5 3.5  C 19.389090909090896 3.5  22.54545454545456 6.635999999999967  22.54545454545456 10.5  Z M 19.727272727272748 10.5  C 19.727272727272748 8.182999999999993  17.832045454545437 6.2999999999999545  15.5 6.2999999999999545  C 13.167954545454563 6.2999999999999545  11.272727272727252 8.182999999999993  11.272727272727252 10.5  C 11.272727272727252 12.817000000000009  13.167954545454563 14.700000000000045  15.5 14.700000000000045  C 17.832045454545437 14.700000000000045  19.727272727272748 12.817000000000009  19.727272727272748 10.5  Z " fill-rule="nonzero" fill="#7e7e7e" stroke="none" transform="matrix(1 0 0 1 267 465 )" />
  </g>
</svg>