<?xml version="1.0" encoding="utf-8"?>
<svg version="1.1" xmlns:xlink="http://www.w3.org/1999/xlink" width="25px" height="27px" xmlns="http://www.w3.org/2000/svg">
  <g transform="matrix(1 0 0 1 -272 -558 )">
    <path d="M 25 5.399999999999977  C 25 3.9082499999999527  23.756944444444457 2.699999999999932  22.22222222222223 2.699999999999932  L 16.40972222222223 2.699999999999932  C 15.840277777777773 1.1340000000000146  14.3125 0  12.5 0  C 10.6875 0  9.159722222222229 1.1340000000000146  8.590277777777771 2.699999999999932  L 2.7777777777777715 2.699999999999932  C 1.243055555555543 2.699999999999932  0 3.9082499999999527  0 5.399999999999977  L 0 24.300000000000068  C 0 25.79174999999998  1.243055555555543 27  2.7777777777777715 27  L 22.22222222222223 27  C 23.756944444444457 27  25 25.79174999999998  25 24.300000000000068  L 25 5.399999999999977  Z M 11.111111111111143 4.050000000000068  C 11.111111111111143 3.3007499999999936  11.736111111111143 2.699999999999932  12.5 2.699999999999932  C 13.263888888888859 2.699999999999932  13.888888888888914 3.3007499999999936  13.888888888888914 4.050000000000068  C 13.888888888888914 4.799250000000029  13.263888888888859 5.399999999999977  12.5 5.399999999999977  C 11.736111111111143 5.399999999999977  11.111111111111143 4.799250000000029  11.111111111111143 4.050000000000068  Z M 8.333333333333314 12.149999999999977  C 8.333333333333314 9.915750000000003  10.201388888888914 8.100000000000023  12.5 8.100000000000023  C 14.798611111111084 8.100000000000023  16.666666666666686 9.915750000000003  16.666666666666686 12.149999999999977  C 16.666666666666686 14.390999999999963  14.798611111111084 16.199999999999932  12.5 16.199999999999932  C 10.201388888888914 16.199999999999932  8.333333333333314 14.390999999999963  8.333333333333314 12.149999999999977  Z M 20.833333333333314 22.409999999999968  L 20.833333333333314 24  L 4.166666666666686 24  L 4.166666666666686 22.409999999999968  C 4.166666666666686 19.710000000000036  9.722222222222229 18.225000000000023  12.5 18.225000000000023  C 15.277777777777771 18.225000000000023  20.833333333333314 19.710000000000036  20.833333333333314 22.409999999999968  Z " fill-rule="nonzero" fill="#333333" stroke="none" transform="matrix(1 0 0 1 272 558 )" />
  </g>
</svg>